<svg width="69" height="69" viewBox="0 0 69 69" fill="none" xmlns="http://www.w3.org/2000/svg">
<path fill-rule="evenodd" clip-rule="evenodd" d="M34.5 69C53.5538 69 69 53.5538 69 34.5C69 15.4462 53.5538 0 34.5 0C15.4462 0 0 15.4462 0 34.5C0 53.5538 15.4462 69 34.5 69Z" fill="#FEDC5A" fill-opacity="0.1"/>
<path d="M30.9994 35.334C30.1194 35.774 29.386 36.4273 28.8394 37.2407C28.5327 37.7073 28.5327 38.294 28.8394 38.7607C29.386 39.574 30.1194 40.2273 30.9994 40.6673" stroke="#FEDC5A" stroke-width="2" stroke-linecap="round" stroke-linejoin="round"/>
<path d="M39.2812 35.334C40.1613 35.774 40.8946 36.4273 41.4412 37.2407C41.7479 37.7073 41.7479 38.294 41.4412 38.7607C40.8946 39.574 40.1613 40.2273 39.2812 40.6673" stroke="#FEDC5A" stroke-width="2" stroke-linecap="round" stroke-linejoin="round"/>
<path d="M30.9974 47.3327H38.9974C45.6641 47.3327 48.3307 44.666 48.3307 37.9993V29.9993C48.3307 23.3327 45.6641 20.666 38.9974 20.666H30.9974C24.3307 20.666 21.6641 23.3327 21.6641 29.9993V37.9993C21.6641 44.666 24.3307 47.3327 30.9974 47.3327Z" stroke="#FEDC5A" stroke-width="2" stroke-linecap="round" stroke-linejoin="round"/>
<path d="M21.9766 28.6793L47.6032 28.666" stroke="#FEDC5A" stroke-width="2" stroke-linecap="round" stroke-linejoin="round"/>
</svg>
