<svg width="69" height="69" viewBox="0 0 69 69" fill="none" xmlns="http://www.w3.org/2000/svg">
<path fill-rule="evenodd" clip-rule="evenodd" d="M34.5 69C53.5538 69 69 53.5538 69 34.5C69 15.4462 53.5538 0 34.5 0C15.4462 0 0 15.4462 0 34.5C0 53.5538 15.4462 69 34.5 69Z" fill="#FEDC5A" fill-opacity="0.1"/>
<path d="M42.2 43.6673H27.8C25.8 43.6673 25 42.814 25 40.694V39.3073C25 37.1873 25.8 36.334 27.8 36.334H42.2C44.2 36.334 45 37.1873 45 39.3073V40.694C45 42.814 44.2 43.6673 42.2 43.6673Z" stroke="#FEDC5A" stroke-width="2" stroke-linecap="round" stroke-linejoin="round"/>
<path d="M39.5307 32.3333H30.4641C28.4641 32.3333 27.6641 31.48 27.6641 29.36V27.9733C27.6641 25.8533 28.4641 25 30.4641 25H39.5307C41.5307 25 42.3307 25.8533 42.3307 27.9733V29.36C42.3307 31.48 41.5307 32.3333 39.5307 32.3333Z" stroke="#FEDC5A" stroke-width="2" stroke-linecap="round" stroke-linejoin="round"/>
<path d="M35 47.3328V44.1328" stroke="#FEDC5A" stroke-width="2" stroke-linecap="round" stroke-linejoin="round"/>
<path d="M35 35.3327V32.666" stroke="#FEDC5A" stroke-width="2" stroke-linecap="round" stroke-linejoin="round"/>
<path d="M35 20.666V24.2527" stroke="#292D32" stroke-width="2" stroke-linecap="round" stroke-linejoin="round"/>
</svg>
