<svg width="69" height="69" viewBox="0 0 69 69" fill="none" xmlns="http://www.w3.org/2000/svg">
<path fill-rule="evenodd" clip-rule="evenodd" d="M34.5 69C53.5538 69 69 53.5538 69 34.5C69 15.4462 53.5538 0 34.5 0C15.4462 0 0 15.4462 0 34.5C0 53.5538 15.4462 69 34.5 69Z" fill="#5454D4" fill-opacity="0.1"/>
<path d="M28.0162 47.3327H41.9895C45.6695 47.3327 47.1362 45.0793 47.3095 42.3327L48.0028 31.3193C48.1895 28.4393 45.8962 25.9993 43.0028 25.9993C42.1895 25.9993 41.4428 25.5327 41.0695 24.8127L40.1095 22.8793C39.4962 21.666 37.8962 20.666 36.5362 20.666H33.4828C32.1095 20.666 30.5095 21.666 29.8962 22.8793L28.9362 24.8127C28.5628 25.5327 27.8162 25.9993 27.0028 25.9993C24.1095 25.9993 21.8162 28.4393 22.0028 31.3193L22.6962 42.3327C22.8562 45.0793 24.3362 47.3327 28.0162 47.3327Z" stroke="#5454D4" stroke-width="2" stroke-linecap="round" stroke-linejoin="round"/>
<path d="M33 28.666H37" stroke="#5454D4" stroke-width="2" stroke-linecap="round" stroke-linejoin="round"/>
<path d="M34.9974 42.0007C37.3841 42.0007 39.3307 40.054 39.3307 37.6673C39.3307 35.2807 37.3841 33.334 34.9974 33.334C32.6107 33.334 30.6641 35.2807 30.6641 37.6673C30.6641 40.054 32.6107 42.0007 34.9974 42.0007Z" stroke="#5454D4" stroke-width="2" stroke-linecap="round" stroke-linejoin="round"/>
</svg>
