<svg width="69" height="69" viewBox="0 0 69 69" fill="none" xmlns="http://www.w3.org/2000/svg">
<path fill-rule="evenodd" clip-rule="evenodd" d="M34.5 69C53.5538 69 69 53.5538 69 34.5C69 15.4462 53.5538 0 34.5 0C15.4462 0 0 15.4462 0 34.5C0 53.5538 15.4462 69 34.5 69Z" fill="#F04037" fill-opacity="0.1"/>
<path d="M36.3434 21.8938L44.2101 25.3871C46.4768 26.3871 46.4768 28.0404 44.2101 29.0404L36.3434 32.5338C35.4501 32.9338 33.9834 32.9338 33.0901 32.5338L25.2234 29.0404C22.9568 28.0404 22.9568 26.3871 25.2234 25.3871L33.0901 21.8938C33.9834 21.4937 35.4501 21.4937 36.3434 21.8938Z" stroke="#F04037" stroke-width="2" stroke-linecap="round" stroke-linejoin="round"/>
<path d="M23 32.666C23 33.786 23.84 35.0793 24.8667 35.5327L33.92 39.5593C34.6133 39.866 35.4 39.866 36.08 39.5593L45.1333 35.5327C46.16 35.0793 47 33.786 47 32.666" stroke="#F04037" stroke-width="2" stroke-linecap="round" stroke-linejoin="round"/>
<path d="M23 39.334C23 40.574 23.7333 41.694 24.8667 42.2007L33.92 46.2273C34.6133 46.534 35.4 46.534 36.08 46.2273L45.1333 42.2007C46.2667 41.694 47 40.574 47 39.334" stroke="#F04037" stroke-width="2" stroke-linecap="round" stroke-linejoin="round"/>
</svg>
