<svg width="69" height="69" viewBox="0 0 69 69" fill="none" xmlns="http://www.w3.org/2000/svg">
<path fill-rule="evenodd" clip-rule="evenodd" d="M34.5 69C53.5538 69 69 53.5538 69 34.5C69 15.4462 53.5538 0 34.5 0C15.4462 0 0 15.4462 0 34.5C0 53.5538 15.4462 69 34.5 69Z" fill="#F04037" fill-opacity="0.1"/>
<path d="M48.3307 37.9993V29.9993C48.3307 23.3327 45.6641 20.666 38.9974 20.666H30.9974C24.3307 20.666 21.6641 23.3327 21.6641 29.9993V37.9993C21.6641 44.666 24.3307 47.3327 30.9974 47.3327H38.9974C45.6641 47.3327 48.3307 44.666 48.3307 37.9993Z" stroke="#F04037" stroke-width="2" stroke-linecap="round" stroke-linejoin="round"/>
<path d="M22.3594 27.4805H47.6394" stroke="#F04037" stroke-width="2" stroke-linecap="round" stroke-linejoin="round"/>
<path d="M30.3594 20.8125V27.2925" stroke="#F04037" stroke-width="2" stroke-linecap="round" stroke-linejoin="round"/>
<path d="M39.6406 20.8125V26.6925" stroke="#F04037" stroke-width="2" stroke-linecap="round" stroke-linejoin="round"/>
<path d="M32 37.2662V35.6662C32 33.6128 33.4533 32.7728 35.2267 33.7995L36.6133 34.5995L38 35.3995C39.7733 36.4262 39.7733 38.1062 38 39.1328L36.6133 39.9328L35.2267 40.7328C33.4533 41.7595 32 40.9195 32 38.8662V37.2662V37.2662Z" stroke="#F04037" stroke-width="2" stroke-miterlimit="10" stroke-linecap="round" stroke-linejoin="round"/>
</svg>
